<svg xmlns="http://www.w3.org/2000/svg" width="792" height="112" viewBox="0 0 792 112">
  <defs>
    <style>
      .cls-1 {
        fill-rule: evenodd;
        fill: #fff;
      }
    </style>
  </defs>
  <path class="cls-1" d="M22.545,31.68H-0.009V19.974H57.7V31.68H35.143V91.853h-12.6V31.68Zm24.283,33.27V64.744c0-15.505,10.87-28.238,26.21-28.238,17.068,0,25.7,13.554,25.7,29.162,0,1.129-.1,2.258-0.2,3.49H59.121c1.32,8.832,7.518,13.761,15.443,13.761,5.994,0,10.261-2.26,14.528-6.469L96.3,82.92c-5.08,6.161-12.089,10.165-21.944,10.165C58.816,93.085,46.828,81.688,46.828,64.949Zm39.723-4.005c-0.813-8.008-5.486-14.273-13.614-14.273-7.518,0-12.8,5.854-13.918,14.273H86.551Zm13.515,4.108v-0.2c0-15.4,11.784-28.341,27.835-28.341,10.16,0,16.46,3.8,21.437,9.344l-7.62,8.318c-3.759-4-7.721-6.778-13.918-6.778-8.94,0-15.442,7.8-15.442,17.251v0.206c0,9.652,6.6,17.456,16.052,17.456,5.791,0,10.058-2.772,13.919-6.776l7.417,7.393c-5.285,5.955-11.481,10.165-21.946,10.165C111.85,93.085,100.066,80.455,100.066,65.052Zm53.643-37.171a7.8,7.8,0,0,1,7.823-7.907h39.825a7.188,7.188,0,0,1,0,14.376h-32v15.3h27.43a7.188,7.188,0,0,1,0,14.376h-27.43V84.563a7.823,7.823,0,1,1-15.646,0V27.881Zm72.237,33.885,9.855-23.72,9.853,23.72H225.946m10.566-42.921H235.6c-4.266,0-7.415,2.361-9.143,6.263l-24.789,56.58a8.451,8.451,0,0,0-.915,3.388,7.239,7.239,0,0,0,7.213,7.394,7.687,7.687,0,0,0,7.215-4.929l4.977-11.809h31.29l4.775,11.3c1.423,3.286,3.861,5.442,7.519,5.442a7.456,7.456,0,0,0,7.417-7.6,7.787,7.787,0,0,0-.813-3.183l-24.789-56.58c-1.728-3.9-4.776-6.263-9.042-6.263m27.227,74.462c-3.732,0-6.594-2.055-8.278-5.943L250.9,76.569H220.7l-4.762,11.3a8.544,8.544,0,0,1-7.977,5.438,8.052,8.052,0,0,1-8.042-8.231,9.271,9.271,0,0,1,.988-3.731L225.7,24.768c1.932-4.361,5.447-6.762,9.9-6.762h0.915c4.389,0,7.868,2.4,9.8,6.759L271.1,81.348a8.566,8.566,0,0,1,.884,3.522A8.254,8.254,0,0,1,263.739,93.307ZM220.155,74.893h31.291l0.762,0.509,4.775,11.3c1.416,3.271,3.691,4.933,6.756,4.933a6.6,6.6,0,0,0,6.588-6.761,6.9,6.9,0,0,0-.739-2.837L244.8,25.447c-1.669-3.77-4.535-5.765-8.284-5.765H235.6c-3.816,0-6.716,1.995-8.387,5.767L202.419,82.034a7.784,7.784,0,0,0-.84,3.041,6.4,6.4,0,0,0,6.384,6.555,6.844,6.844,0,0,0,6.453-4.424l4.976-11.8Zm25.5-12.289H225.946l-0.764-1.162,9.855-23.72h1.528l9.854,23.72Zm-18.462-1.676h17.216L235.8,40.21ZM338.616,93.307a8.659,8.659,0,0,1-8.55-8.744V51.556L317.875,70.54c-1.948,2.954-4.3,4.386-7.2,4.386s-5.249-1.432-7.192-4.377L291.493,51.864v32.9a8.555,8.555,0,0,1-8.551,8.539,8.4,8.4,0,0,1-8.448-8.539V27.47a8.606,8.606,0,0,1,8.652-8.745h1.728a8.871,8.871,0,0,1,7.818,4.51l18.19,29.948,18.292-30.054a8.462,8.462,0,0,1,7.716-4.4h1.726a8.606,8.606,0,0,1,8.652,8.745V84.563A8.6,8.6,0,0,1,338.616,93.307ZM331.724,45.9V84.563a6.945,6.945,0,1,0,13.887,0V27.47a6.958,6.958,0,0,0-7-7.069H336.89a6.838,6.838,0,0,0-6.3,3.606l-19.7,32.377-19.6-32.275a7.214,7.214,0,0,0-6.4-3.708h-1.728a6.958,6.958,0,0,0-6.994,7.069v57.3a6.842,6.842,0,1,0,13.683,0V46.2l15.037,23.426c1.628,2.469,3.475,3.622,5.806,3.622s4.179-1.154,5.813-3.631Zm6.892,47.412a8.736,8.736,0,1,1,8.643-8.735A8.7,8.7,0,0,1,338.616,93.307Zm0-15.8a7.06,7.06,0,1,0,6.985,7.06A7.03,7.03,0,0,0,338.616,77.512ZM283.137,36.2a8.736,8.736,0,1,1,8.642-8.736A8.7,8.7,0,0,1,283.137,36.2Zm0-15.8a7.06,7.06,0,1,0,6.984,7.06A7.03,7.03,0,0,0,283.137,20.4Zm98.86,0h-3.316V18.725H382V20.4Zm-6.632,0h-4.973V18.725h4.973V20.4Zm-8.289,0H362.1V18.725h4.974V20.4Zm-8.29,0h-4.973V18.725h4.973V20.4Zm-8.289,0h-4.974V18.725H350.5V20.4Zm-8.29,0h-4.973V18.725h4.973V20.4Zm-8.289,0h-4.974V18.725h4.974V20.4Zm-8.29,0h-4.973V18.725h4.973V20.4Zm-8.289,0h-4.974V18.725h4.974V20.4Zm-8.29,0h-4.973V18.725h4.973V20.4Zm-8.289,0h-4.974V18.725h4.974V20.4Zm-8.29,0H287.5V18.725h4.973V20.4Zm-8.289,0h-4.974V18.725h4.974V20.4Zm-8.289,0h-4.974V18.725h4.974V20.4Zm-8.29,0h-4.974V18.725H267.6V20.4Zm-8.289,0h-4.974V18.725h4.974V20.4Zm-8.29,0h-4.974V18.725h4.974V20.4Zm-8.289,0H237.76V18.725h4.974V20.4Zm-8.29,0H229.47V18.725h4.974V20.4Zm-8.289,0h-4.974V18.725h4.974V20.4ZM373.332,36.2h-3.078V34.52h3.078V36.2Zm-6.394,0h-4.974V34.52h4.974V36.2Zm-8.289,0h-4.974V34.52h4.974V36.2Zm-8.29,0h-4.973V34.52h4.973V36.2Zm-8.289,0H337.1V34.52h4.974V36.2Zm-8.29,0h-4.973V34.52h4.973V36.2Zm-8.289,0h-4.974V34.52h4.974V36.2Zm-8.29,0h-4.973V34.52H317.2V36.2Zm-8.289,0h-4.974V34.52h4.974V36.2Zm-8.29,0h-4.973V34.52h4.973V36.2Zm-8.289,0h-4.974V34.52h4.974V36.2Zm-8.29,0H279.07V34.52h4.973V36.2Zm-8.289,0H270.78V34.52h4.974V36.2Zm-8.29,0h-4.973V34.52h4.973V36.2ZM382,77.512h-3.316V75.836H382v1.676Zm-6.632,0h-4.973V75.836h4.973v1.676Zm-8.289,0H362.1V75.836h4.974v1.676Zm-8.29,0h-4.973V75.836h4.973v1.676Zm-8.289,0h-4.974V75.836H350.5v1.676Zm-8.29,0h-4.973V75.836h4.973v1.676Zm-8.289,0h-4.974V75.836h4.974v1.676Zm-8.29,0h-4.973V75.836h4.973v1.676Zm-8.289,0h-4.974V75.836h4.974v1.676Zm-8.29,0h-4.973V75.836h4.973v1.676Zm-8.289,0h-4.974V75.836h4.974v1.676Zm-8.29,0H287.5V75.836h4.973v1.676Zm-8.289,0h-4.974V75.836h4.974v1.676Zm-8.289,0h-4.974V75.836h4.974v1.676Zm-8.29,0h-4.974V75.836H267.6v1.676Zm-8.289,0h-4.974V75.836h4.974v1.676Zm-8.29,0h-4.974V75.836h4.974v1.676Zm-8.289,0H237.76V75.836h4.974v1.676Zm-8.29,0H229.47V75.836h4.974v1.676Zm-8.289,0h-4.974V75.836h4.974v1.676Zm147.177,15.8h-3.078V91.631h3.078v1.676Zm-6.394,0h-4.974V91.631h4.974v1.676Zm-8.289,0h-4.974V91.631h4.974v1.676Zm-8.29,0h-4.973V91.631h4.973v1.676Zm-8.289,0H337.1V91.631h4.974v1.676Zm-8.29,0h-4.973V91.631h4.973v1.676Zm-8.289,0h-4.974V91.631h4.974v1.676Zm-8.29,0h-4.973V91.631H317.2v1.676Zm-8.289,0h-4.974V91.631h4.974v1.676Zm-8.29,0h-4.973V91.631h4.973v1.676Zm-8.289,0h-4.974V91.631h4.974v1.676Zm-8.29,0H279.07V91.631h4.973v1.676Zm-8.289,0H270.78V91.631h4.974v1.676Zm-8.29,0h-4.973V91.631h4.973v1.676Zm8.688,18.724h-1.658V107h1.658v5.027Zm0-8.378h-1.658V98.626h1.658v5.027Zm0-8.378h-1.658V90.248h1.658v5.027Zm0-8.379h-1.658V81.869h1.658V86.9Zm0-8.378h-1.658V73.491h1.658v5.027Zm0-8.378h-1.658V65.112h1.658v5.027Zm0-8.378h-1.658V56.734h1.658v5.027Zm0-8.379h-1.658V48.356h1.658v5.027Zm0-8.378h-1.658V39.977h1.658V45Zm0-8.379h-1.658V31.6h1.658v5.027Zm0-8.378h-1.658V23.22h1.658v5.027Zm0-8.379h-1.658V14.842h1.658v5.027Zm0-8.378h-1.658V6.463h1.658V11.49Zm0-8.378h-1.658V0h1.658V3.112Zm15.627,108.919h-1.658V107h1.658v5.027Zm0-8.378h-1.658V98.626h1.658v5.027Zm0-8.378h-1.658V90.248h1.658v5.027Zm0-8.379h-1.658V81.869h1.658V86.9Zm0-8.378h-1.658V73.491h1.658v5.027Zm0-8.378h-1.658V65.112h1.658v5.027Zm0-8.378h-1.658V56.734h1.658v5.027Zm0-8.379h-1.658V48.356h1.658v5.027Zm0-8.378h-1.658V39.977h1.658V45Zm0-8.379h-1.658V31.6h1.658v5.027Zm0-8.378h-1.658V23.22h1.658v5.027Zm0-8.379h-1.658V14.842h1.658v5.027Zm0-8.378h-1.658V6.463h1.658V11.49Zm0-8.378h-1.658V0h1.658V3.112Z"/>
  <path class="cls-1" d="M400,57.28V57.235a5.874,5.874,0,0,1,5.821-6.034,5.538,5.538,0,0,1,4.483,1.99l-1.593,1.771a3.741,3.741,0,0,0-2.911-1.443,3.427,3.427,0,0,0-3.23,3.672v0.044a3.473,3.473,0,0,0,3.358,3.716,3.9,3.9,0,0,0,2.909-1.444l1.552,1.575a5.616,5.616,0,0,1-4.589,2.163A5.812,5.812,0,0,1,400,57.28Zm12.626,1.508V51.443h2.57V58c0,1.792.87,2.819,2.4,2.819,1.486,0,2.527-1.072,2.527-2.864V51.443H422.7V62.984h-2.571V61.192a4.016,4.016,0,0,1-3.5,2.033C414.091,63.225,412.626,61.477,412.626,58.787Zm13.305-7.344H428.5v2.6a3.987,3.987,0,0,1,3.974-2.819v2.8h-0.149c-2.252,0-3.825,1.508-3.825,4.567v4.394h-2.571V51.443ZM433.8,61.477l1.147-1.792A6.191,6.191,0,0,0,438.62,61.1c1.105,0,1.742-.481,1.742-1.246V59.814c0-.9-1.19-1.2-2.507-1.618-1.657-.48-3.5-1.18-3.5-3.387V54.765c0-2.186,1.762-3.519,3.992-3.519a7.615,7.615,0,0,1,4.122,1.312l-1.019,1.88a6.382,6.382,0,0,0-3.165-1.093c-1,0-1.572.481-1.572,1.159v0.043c0,0.831,1.21,1.182,2.527,1.618,1.636,0.525,3.483,1.29,3.483,3.367v0.043c0,2.426-1.826,3.629-4.163,3.629A7.75,7.75,0,0,1,433.8,61.477Zm10.926-4.2V57.235a5.981,5.981,0,1,1,11.962-.044v0.044a5.948,5.948,0,0,1-6.013,6.011A5.883,5.883,0,0,1,444.723,57.28Zm9.391,0V57.235a3.525,3.525,0,0,0-3.442-3.716,3.424,3.424,0,0,0-3.379,3.672v0.044a3.534,3.534,0,0,0,3.422,3.716A3.44,3.44,0,0,0,454.114,57.28Zm12.1,2.513V53.716h-1.422V51.443h1.422v-3.17h2.57v3.17H471.8v2.273h-3.017v5.662a1.242,1.242,0,0,0,1.383,1.442,3.389,3.389,0,0,0,1.593-.393v2.164a4.4,4.4,0,0,1-2.316.591C467.55,63.182,466.211,62.329,466.211,59.793Zm7.25-2.536V57.214c0-3.3,2.273-6.012,5.481-6.012,3.569,0,5.375,2.887,5.375,6.208,0,0.24-.021.481-0.043,0.744h-8.243a3.165,3.165,0,0,0,3.23,2.93,4.022,4.022,0,0,0,3.037-1.378l1.509,1.378a5.614,5.614,0,0,1-4.589,2.163A5.679,5.679,0,0,1,473.461,57.256Zm8.306-.853c-0.169-1.7-1.147-3.038-2.847-3.038-1.571,0-2.676,1.246-2.909,3.038h5.756Zm-1.678-10.01,2.338,1.07-2.614,2.515H477.88ZM486.3,57.28V57.235A5.874,5.874,0,0,1,492.12,51.2a5.539,5.539,0,0,1,4.484,1.99l-1.593,1.771a3.741,3.741,0,0,0-2.911-1.443,3.427,3.427,0,0,0-3.23,3.672v0.044a3.473,3.473,0,0,0,3.358,3.716,3.9,3.9,0,0,0,2.909-1.444l1.552,1.575a5.618,5.618,0,0,1-4.589,2.163A5.813,5.813,0,0,1,486.3,57.28Zm12.753-5.836h2.57v1.793a4.019,4.019,0,0,1,3.507-2.034c2.527,0,3.994,1.75,3.994,4.439v7.344h-2.571V56.427c0-1.792-.871-2.821-2.4-2.821-1.487,0-2.529,1.071-2.529,2.864v6.514h-2.57V51.443Zm13.223-4.286h2.761v2.515h-2.761V47.157Zm0.105,4.286h2.571V62.984H512.38V51.443Zm5.314,5.836V57.235a5.874,5.874,0,0,1,5.821-6.034A5.54,5.54,0,0,1,528,53.191l-1.593,1.771a3.742,3.742,0,0,0-2.912-1.443,3.427,3.427,0,0,0-3.229,3.672v0.044a3.472,3.472,0,0,0,3.357,3.716,3.9,3.9,0,0,0,2.91-1.444l1.552,1.575a5.618,5.618,0,0,1-4.59,2.163A5.812,5.812,0,0,1,517.694,57.28Zm11.819,0V57.235a5.981,5.981,0,1,1,11.961-.044v0.044a5.947,5.947,0,0,1-6.013,6.011A5.883,5.883,0,0,1,529.513,57.28Zm9.391,0V57.235a3.525,3.525,0,0,0-3.443-3.716,3.424,3.424,0,0,0-3.378,3.672v0.044a3.534,3.534,0,0,0,3.422,3.716A3.44,3.44,0,0,0,538.9,57.28Zm10.952,0V57.235a5.873,5.873,0,0,1,5.82-6.034,5.539,5.539,0,0,1,4.484,1.99l-1.593,1.771a3.741,3.741,0,0,0-2.911-1.443,3.427,3.427,0,0,0-3.23,3.672v0.044a3.473,3.473,0,0,0,3.358,3.716,3.9,3.9,0,0,0,2.909-1.444l1.552,1.575a5.616,5.616,0,0,1-4.589,2.163A5.811,5.811,0,0,1,549.856,57.28Zm11.818,0V57.235a5.981,5.981,0,1,1,11.962-.044v0.044a5.948,5.948,0,0,1-6.013,6.011A5.883,5.883,0,0,1,561.674,57.28Zm9.391,0V57.235a3.525,3.525,0,0,0-3.442-3.716,3.424,3.424,0,0,0-3.379,3.672v0.044a3.534,3.534,0,0,0,3.422,3.716A3.44,3.44,0,0,0,571.065,57.28Zm5.189-5.836h2.571v1.748a4.006,4.006,0,0,1,3.422-1.99,3.518,3.518,0,0,1,3.335,2.034,4.543,4.543,0,0,1,3.8-2.034c2.444,0,3.93,1.6,3.93,4.416v7.367h-2.57V56.427c0-1.837-.829-2.821-2.273-2.821-1.4,0-2.4,1.006-2.4,2.864v6.514H583.5V56.4c0-1.792-.849-2.8-2.273-2.8s-2.4,1.093-2.4,2.885v6.493h-2.571V51.443Zm25.955,5.813V57.214c0-3.3,2.273-6.012,5.482-6.012,3.569,0,5.374,2.887,5.374,6.208,0,0.24-.02.481-0.043,0.744H604.78a3.163,3.163,0,0,0,3.229,2.93,4.024,4.024,0,0,0,3.038-1.378l1.508,1.378a5.614,5.614,0,0,1-4.589,2.163A5.68,5.68,0,0,1,602.209,57.256Zm8.307-.853c-0.17-1.7-1.147-3.038-2.848-3.038-1.57,0-2.676,1.246-2.909,3.038h5.757Zm4.233,5.073,1.147-1.792a6.186,6.186,0,0,0,3.675,1.421c1.106,0,1.742-.481,1.742-1.246V59.814c0-.9-1.19-1.2-2.506-1.618-1.657-.48-3.5-1.18-3.5-3.387V54.765c0-2.186,1.763-3.519,3.993-3.519a7.615,7.615,0,0,1,4.122,1.312l-1.019,1.88a6.388,6.388,0,0,0-3.166-1.093c-1,0-1.572.481-1.572,1.159v0.043c0,0.831,1.211,1.182,2.527,1.618,1.637,0.525,3.484,1.29,3.484,3.367v0.043c0,2.426-1.827,3.629-4.163,3.629A7.745,7.745,0,0,1,614.749,61.477Zm11.861-1.684V53.716h-1.422V51.443h1.422v-3.17h2.571v3.17H632.2v2.273h-3.016v5.662a1.242,1.242,0,0,0,1.382,1.442,3.389,3.389,0,0,0,1.593-.393v2.164a4.4,4.4,0,0,1-2.316.591C627.949,63.182,626.61,62.329,626.61,59.793Zm8.184-8.35h2.571v2.6a3.986,3.986,0,0,1,3.973-2.819v2.8h-0.149c-2.252,0-3.824,1.508-3.824,4.567v4.394h-2.571V51.443Zm8.651,7.344V51.443h2.57V58c0,1.792.87,2.819,2.4,2.819,1.486,0,2.528-1.072,2.528-2.864V51.443h2.57V62.984h-2.57V61.192a4.018,4.018,0,0,1-3.5,2.033C644.91,63.225,643.445,61.477,643.445,58.787Zm13.837,1.006V53.716H655.86V51.443h1.422v-3.17h2.571v3.17h3.016v2.273h-3.016v5.662a1.242,1.242,0,0,0,1.382,1.442,3.392,3.392,0,0,0,1.593-.393v2.164a4.4,4.4,0,0,1-2.316.591C658.621,63.182,657.282,62.329,657.282,59.793Zm8.058-1.006V51.443h2.57V58c0,1.792.87,2.819,2.4,2.819,1.488,0,2.529-1.072,2.529-2.864V51.443h2.571V62.984h-2.571V61.192a4.016,4.016,0,0,1-3.5,2.033C666.805,63.225,665.34,61.477,665.34,58.787Zm13.3-7.344h2.57v2.6a3.987,3.987,0,0,1,3.974-2.819v2.8h-0.149c-2.252,0-3.825,1.508-3.825,4.567v4.394h-2.57V51.443Zm15.11,11.541v-1.42a4.482,4.482,0,0,1-3.633,1.661c-2.124,0-3.994-1.246-3.994-3.563V59.619c0-2.558,1.934-3.782,4.546-3.782a9.244,9.244,0,0,1,3.1.48V56.1c0-1.595-.977-2.469-2.762-2.469a7.621,7.621,0,0,0-3.209.721l-0.7-2.12a9.39,9.39,0,0,1,4.271-.963c3.315,0,4.929,1.793,4.929,4.875v6.842h-2.55Zm0.064-4.831a7.14,7.14,0,0,0-2.571-.459c-1.614,0-2.57.678-2.57,1.793v0.044c0,1.093.956,1.705,2.167,1.705,1.7,0,2.974-.984,2.974-2.428V58.154Zm11.014,3.323,1.147-1.792a6.189,6.189,0,0,0,3.676,1.421c1.105,0,1.742-.481,1.742-1.246V59.814c0-.9-1.191-1.2-2.507-1.618-1.657-.48-3.5-1.18-3.5-3.387V54.765c0-2.186,1.763-3.519,3.993-3.519a7.615,7.615,0,0,1,4.122,1.312l-1.019,1.88a6.382,6.382,0,0,0-3.165-1.093c-1,0-1.573.481-1.573,1.159v0.043c0,0.831,1.211,1.182,2.527,1.618,1.637,0.525,3.484,1.29,3.484,3.367v0.043c0,2.426-1.827,3.629-4.164,3.629A7.747,7.747,0,0,1,704.832,61.477Zm11.415-2.689V51.443h2.57V58c0,1.792.871,2.819,2.4,2.819,1.485,0,2.527-1.072,2.527-2.864V51.443h2.57V62.984h-2.57V61.192a4.018,4.018,0,0,1-3.5,2.033C717.712,63.225,716.247,61.477,716.247,58.787Zm13.306-7.344h2.57v1.922a4.46,4.46,0,0,1,3.8-2.164c2.655,0,5.226,2.164,5.226,5.989v0.044c0,3.825-2.55,5.989-5.226,5.989a4.54,4.54,0,0,1-3.8-2.033v5.289h-2.57V51.443Zm8.986,5.792V57.191c0-2.229-1.465-3.693-3.207-3.693a3.439,3.439,0,0,0-3.271,3.693v0.044a3.427,3.427,0,0,0,3.271,3.7C737.1,60.93,738.539,59.508,738.539,57.235Zm4.64,0.021V57.214c0-3.3,2.273-6.012,5.482-6.012,3.568,0,5.374,2.887,5.374,6.208,0,0.24-.02.481-0.043,0.744h-8.243a3.165,3.165,0,0,0,3.23,2.93,4.022,4.022,0,0,0,3.037-1.378l1.509,1.378a5.614,5.614,0,0,1-4.589,2.163A5.679,5.679,0,0,1,743.179,57.256Zm8.306-.853c-0.169-1.7-1.146-3.038-2.845-3.038-1.573,0-2.678,1.246-2.912,3.038h5.757Zm5.148-4.961H759.2v2.6a3.986,3.986,0,0,1,3.973-2.819v2.8h-0.148c-2.253,0-3.825,1.508-3.825,4.567v4.394h-2.571V51.443Zm8.821-4.286h2.761v2.515h-2.761V47.157Zm0.105,4.286h2.571V62.984h-2.571V51.443Zm5.316,5.836V57.235a5.981,5.981,0,1,1,11.962-.044v0.044a5.948,5.948,0,0,1-6.013,6.011A5.883,5.883,0,0,1,770.875,57.28Zm9.391,0V57.235a3.524,3.524,0,0,0-3.442-3.716,3.424,3.424,0,0,0-3.378,3.672v0.044a3.533,3.533,0,0,0,3.421,3.716A3.44,3.44,0,0,0,780.266,57.28Zm5.19-5.836h2.57v2.6A3.988,3.988,0,0,1,792,51.224v2.8h-0.149c-2.252,0-3.825,1.508-3.825,4.567v4.394h-2.57V51.443Z"/>
</svg>
