<svg xmlns="http://www.w3.org/2000/svg" width="29" height="29" viewBox="0 0 29 29">
  <defs>
    <style>
      .cls-1 {
        fill: #fff;
        fill-rule: evenodd;
      }
    </style>
  </defs>
  <path id="Forma_1" data-name="Forma 1" class="cls-1" d="M14.576,0.142A14.185,14.185,0,1,0,28.844,14.327,14.243,14.243,0,0,0,14.576.142Zm0,26.059A11.874,11.874,0,1,1,26.519,14.327,11.923,11.923,0,0,1,14.576,26.2Zm7.37-15.522a0.753,0.753,0,0,1-.194,1.051l-6.888,4.73a0.76,0.76,0,0,1-1.192-.622V5.713a0.76,0.76,0,0,1,1.52,0V14.4l5.7-3.912A0.765,0.765,0,0,1,21.946,10.678Z"/>
</svg>
