<svg xmlns="http://www.w3.org/2000/svg" xmlns:xlink="http://www.w3.org/1999/xlink" viewBox="0 0 629.26192 158.362">
  <defs>
    <style>
      .cls-1 {
        fill: none;
      }

      .cls-2 {
        clip-path: url(#clip-path);
      }

      .cls-3, .cls-4 {
        fill: #fff;
      }

      .cls-3 {
        fill-rule: evenodd;
      }
    </style>
    <clipPath id="clip-path" transform="translate(-0.0003)">
      <rect class="cls-1" width="629.263" height="158.362"/>
    </clipPath>
  </defs>
  <title>logo-fam</title>
  <g id="Camada_2" data-name="Camada 2">
    <g id="Camada_1-2" data-name="Camada 1">
      <g class="cls-2">
        <path class="cls-3" d="M537.47479,70.0735a11.14961,11.14961,0,0,0,10.416-8.735c1.016-5.215,2.413-12.394,3.428-17.608.936-4.811-2.223-8.735-7.035-8.735h-59.096l-.699,3.586c-1.078,5.546,2.562,10.067,8.109,10.067h40.348l-1.491,7.654c-13.929,0-27.791-.039-41.709,0a11.16638,11.16638,0,0,0-10.408,8.743l-2.261,11.618-.044.226-.077.397-.078.396-.076.393-.076.396-.078.397-.078.396-.075.399-.079.396-.076.397-.078.396-.078.397-.075.392-.077.397-.077.396-.078.399-.077.39-.077.397-.077.398-.078.397-.075.39-.079.398-.076.391-.076.397-.077.393-.076.396-.077.393-.077.396-.076.393-.077.39-.078.398-.075.391-.076.392-.077.392-.076.392h67.831l2.658-13.654h-50.411l1.284-6.59Z" transform="translate(-0.0003)"/>
        <path class="cls-3" d="M560.61157,90.3157c-5.027,0-8.329-4.1-7.352-9.122q3.61058-18.53549,7.217-37.073a11.64939,11.64939,0,0,1,10.901-9.122h50.362c5.027,0,8.329,4.098,7.351,9.122q-3.60746,18.53552-7.215,37.073a11.652,11.652,0,0,1-10.903,9.122Zm15.49506-41.664c-3.265,16.772-1.99805,10.264-5.452,28.011h35.591c3.455-17.747,2.186-11.239,5.452-28.011Z" transform="translate(-0.0003)"/>
        <path class="cls-3" d="M451.51779,29.054h0l-20.532,103.229a9.89118,9.89118,0,0,1-9.879,8.033l20.532-103.23a9.89285,9.89285,0,0,1,9.879-8.032" transform="translate(-0.0003)"/>
        <path class="cls-4" d="M193.8528,121.9017h-7.304v12.064q.027.4095.633.409h.543c.403,0,.614-.136.63-.409v-5.357h3.483c.243,0,.371-.162.39-.488v-.365c-.019-.324-.147-.488-.39-.488h-3.483v-3.893h5.498c.213-.018.319-.201.319-.547v-.463c0-.291-.106-.444-.319-.463" transform="translate(-0.0003)"/>
        <path class="cls-4" d="M200.2236,124.7677q-3.99452.1725-4.4,4.853,0,4.755,3.783,4.754a3.01881,3.01881,0,0,0,2.421-1.366v.957c.019.273.227.409.632.409h.544c.403,0,.614-.136.631-.409v-7.69q-.801-1.509-3.611-1.508m1.804,5.383q-.579,2.43-2.532,2.438-1.96948,0-1.969-2.986.24748-3.099,2.635-3.187a2.38272,2.38272,0,0,1,1.866.6Z" transform="translate(-0.0003)"/>
        <path class="cls-4" d="M210.4455,126.3694a2.25028,2.25028,0,0,1,2.048.985.21435.21435,0,0,0,.207.115.65222.65222,0,0,0,.217-.045l1.029-.478a.25168.25168,0,0,0,.137-.209.32134.32134,0,0,0-.043-.158,3.85868,3.85868,0,0,0-3.595-1.847q-4.21652.09-4.235,4.818.01952,4.6755,4.235,4.764a3.85993,3.85993,0,0,0,3.595-1.846.32781.32781,0,0,0,.043-.159.257.257,0,0,0-.137-.21l-1.029-.476a.62808.62808,0,0,0-.217-.045.21526.21526,0,0,0-.207.114,2.2532,2.2532,0,0,1-2.048.983q-2.29952,0-2.367-3.125.0675-3.1785,2.367-3.181" transform="translate(-0.0003)"/>
        <path class="cls-4" d="M223.3381,124.7776h-.542c-.404,0-.615.137-.631.409v5.346q-.639,2.241-2.43,2.284-1.6395,0-1.641-2.936v-4.694c-.017-.272-.228-.409-.63-.409h-.546c-.404,0-.613.137-.631.409v4.729q0,4.431,3.459,4.432a2.70736,2.70736,0,0,0,2.419-1.193v.811c.016.273.227.409.631.409h.542c.406,0,.614-.136.632-.409v-8.779c-.018-.272-.226-.409-.632-.409" transform="translate(-0.0003)"/>
        <path class="cls-4" d="M230.3401,132.5188a.13337.13337,0,0,0-.026.008,1.92579,1.92579,0,0,1-.682.089q-1.04551,0-1.046-1.185v-10.051c-.018-.273-.229-.409-.63-.409h-.548c-.4,0-.611.136-.629.409v10.147a2.54584,2.54584,0,0,0,2.843,2.821,3.47616,3.47616,0,0,0,.821-.087c.222-.051.337-.402.355-1.054v-.042q0-.6465-.458-.646" transform="translate(-0.0003)"/>
        <path class="cls-4" d="M239.5703,120.9707h-.543q-.6075,0-.633.409v3.598a6.88461,6.88461,0,0,0-1.805-.21q-3.99448.1725-4.4,4.853,0,4.755,3.786,4.754a3.01653,3.01653,0,0,0,2.419-1.366v.957q.0255.4095.633.409h.543c.402,0,.613-.136.63-.409v-12.586c-.017-.273-.228-.409-.63-.409m-1.176,9.18c-.384,1.62-1.231,2.432-2.532,2.438q-1.97248,0-1.969-2.986.249-3.099,2.636-3.187a2.38167,2.38167,0,0,1,1.865.6Z" transform="translate(-0.0003)"/>
        <path class="cls-4" d="M247.17569,124.7677q-3.993.1725-4.398,4.853,0,4.755,3.785,4.754a3.01469,3.01469,0,0,0,2.418-1.366v.957q.027.4095.633.409h.544c.403,0,.614-.136.629-.409v-7.69q-.79951-1.509-3.611-1.508m1.805,5.383q-.576,2.43-2.532,2.438-1.96947,0-1.969-2.986.249-3.099,2.636-3.187a2.38024,2.38024,0,0,1,1.865.6Z" transform="translate(-0.0003)"/>
        <path class="cls-4" d="M260.3905,120.9707h-.546c-.401,0-.612.136-.629.409v3.598a6.90878,6.90878,0,0,0-1.806-.21q-3.99147.1725-4.398,4.853,0,4.755,3.783,4.754a3.02348,3.02348,0,0,0,2.421-1.366v.957c.017.273.228.409.629.409h.546q.606,0,.631-.409v-12.586q-.02553-.4095-.631-.409m-1.175,9.18q-.58055,2.43-2.534,2.438-1.96647,0-1.97-2.986.25052-3.099,2.637-3.187a2.38668,2.38668,0,0,1,1.867.6Z" transform="translate(-0.0003)"/>
        <path class="cls-4" d="M271.34009,132.1088l-1.03-.478a.68469.68469,0,0,0-.215-.044.21654.21654,0,0,0-.208.115,2.19318,2.19318,0,0,1-2.048,1.071q-2.0895,0-2.464-2.543a13.27857,13.27857,0,0,0,1.566.096q4.053-.1905,4.138-3.093-.3-2.421-3.153-2.473-4.04548.087-4.322,4.72.021,4.758,4.235,4.842a3.85293,3.85293,0,0,0,3.596-1.845.3256.3256,0,0,0,.044-.158.25518.25518,0,0,0-.139-.21m-3.501-5.879q1.50449,0,1.703,1.073v.052q0,.993-1.357,1.366a4.2619,4.2619,0,0,1-1.149.158,6.684,6.684,0,0,1-1.687-.225,2.60615,2.60615,0,0,1,2.49-2.424" transform="translate(-0.0003)"/>
        <path class="cls-4" d="M285.02869,120.9707h-.544c-.404,0-.616.136-.63.409v3.598a6.91668,6.91668,0,0,0-1.807-.21q-3.993.1725-4.399,4.853,0,4.755,3.785,4.754a3.02347,3.02347,0,0,0,2.421-1.366v.957c.014.273.226.409.63.409h.544c.403,0,.614-.136.63-.409v-12.586c-.016-.273-.227-.409-.63-.409m-1.174,9.18q-.58055,2.43-2.534,2.438-1.96948,0-1.969-2.986.252-3.099,2.634-3.187a2.38879,2.38879,0,0,1,1.869.6Z" transform="translate(-0.0003)"/>
        <path class="cls-4" d="M295.98019,132.1088l-1.03-.478a.68022.68022,0,0,0-.218-.044.20864.20864,0,0,0-.204.115,2.20061,2.20061,0,0,1-2.05,1.071q-2.09253,0-2.462-2.543a13.2746,13.2746,0,0,0,1.565.096q4.0545-.1905,4.138-3.093-.30153-2.421-3.156-2.473-4.03652.087-4.32,4.72.01951,4.758,4.235,4.842a3.85232,3.85232,0,0,0,3.595-1.845.31806.31806,0,0,0,.046-.158.25738.25738,0,0,0-.139-.21m-3.502-5.879q1.50449,0,1.703,1.073v.052q0,.993-1.355,1.366a4.28752,4.28752,0,0,1-1.151.158,6.6959,6.6959,0,0,1-1.687-.225,2.6069,2.6069,0,0,1,2.49-2.424" transform="translate(-0.0003)"/>
        <path class="cls-4" d="M307.794,122.2512a.6638.6638,0,0,0-.242-.313.76982.76982,0,0,0-.423-.097h-.736a.72552.72552,0,0,0-.426.123.66111.66111,0,0,0-.249.287l-3.968,11.715a.87583.87583,0,0,0-.016.122c0,.19.172.286.511.286h.717a.73725.73725,0,0,0,.768-.408l.962-2.831h4.389l.959,2.831a.74951.74951,0,0,0,.777.408h.458c.337,0,.503-.096.503-.286a.70128.70128,0,0,0-.018-.122Zm-2.68,7.629,1.773-5.233,1.77,5.233Z" transform="translate(-0.0003)"/>
        <path class="cls-4" d="M323.0744,124.7776a2.964,2.964,0,0,0-2.706,1.558,2.61838,2.61838,0,0,0-2.568-1.558,2.73649,2.73649,0,0,0-2.619,1.592v-1.183c-.015-.272-.227-.409-.629-.409h-.547c-.402,0-.613.137-.63.409v8.779c.017.273.228.409.63.409h.547c.402,0,.614-.136.629-.409v-4.652q.48449-2.874,2.142-2.891,1.74747,0,1.747,3.18v4.363q.027.4095.633.409h.544q.60451,0,.631-.409v-4.416q.258-3.117,1.892-3.127,1.57351,0,1.574,3.18v4.363q.02249.4095.629.409h.543c.406,0,.615-.136.632-.409v-4.732q0-4.455-3.074-4.456" transform="translate(-0.0003)"/>
        <path class="cls-4" d="M336.2785,132.1088l-1.028-.478a.67993.67993,0,0,0-.217-.044.217.217,0,0,0-.207.115,2.19737,2.19737,0,0,1-2.048,1.071q-2.0895,0-2.464-2.543a13.30485,13.30485,0,0,0,1.566.096q4.053-.1905,4.139-3.093-.303-2.421-3.156-2.473-4.03949.087-4.321,4.72.0195,4.758,4.236,4.842a3.85339,3.85339,0,0,0,3.595-1.845.315.315,0,0,0,.044-.158.25521.25521,0,0,0-.139-.21m-3.5-5.879q1.506,0,1.701,1.073v.052c0,.662-.45,1.118-1.355,1.366a4.26029,4.26029,0,0,1-1.151.158,6.667,6.667,0,0,1-1.684-.225,2.603,2.603,0,0,1,2.489-2.424" transform="translate(-0.0003)"/>
        <path class="cls-4" d="M343.19061,124.7601a2.54675,2.54675,0,0,0-2.549,1.437v-1.01c-.016-.273-.227-.409-.629-.409h-.572q-.60451,0-.631.409v8.779c.034.273.255.408.656.408h.547c.402,0,.613-.135.629-.408v-5.14q.01049-2.1165,1.866-2.21a.83762.83762,0,0,0,.735-.437l.381-.932a.6464.6464,0,0,0,.035-.181q0-.306-.468-.306" transform="translate(-0.0003)"/>
        <path class="cls-4" d="M346.5451,124.7776h-.546c-.403,0-.611.137-.628.409v8.779c.017.273.225.409.628.409h.546c.404,0,.616-.136.631-.409v-8.779c-.015-.272-.227-.409-.631-.409" transform="translate(-0.0003)"/>
        <path class="cls-4" d="M346.57251,121.303h-.598c-.403,0-.603.147-.603.443v.88c0,.29.2.434.603.434h.598c.409,0,.613-.144.613-.434v-.88c0-.296-.204-.443-.613-.443" transform="translate(-0.0003)"/>
        <path class="cls-4" d="M354.08911,126.3694a2.25269,2.25269,0,0,1,2.05.985.20855.20855,0,0,0,.205.115.67813.67813,0,0,0,.219-.045l1.025-.478a.24791.24791,0,0,0,.139-.209.31981.31981,0,0,0-.042-.158,3.85825,3.85825,0,0,0-3.596-1.847q-4.2165.09-4.233,4.818.015,4.6755,4.233,4.764a3.85949,3.85949,0,0,0,3.596-1.846.32619.32619,0,0,0,.042-.159.253.253,0,0,0-.139-.21l-1.025-.476a.65243.65243,0,0,0-.219-.045.20939.20939,0,0,0-.205.114,2.25562,2.25562,0,0,1-2.05.983q-2.29953,0-2.368-3.125.069-3.1785,2.368-3.181" transform="translate(-0.0003)"/>
        <path class="cls-4" d="M364.1239,124.7677q-3.99448.1725-4.4,4.853,0,4.755,3.785,4.754a3.02228,3.02228,0,0,0,2.422-1.366v.957q.0255.4095.63.409h.543c.405,0,.615-.136.633-.409v-7.69q-.804-1.509-3.613-1.508m1.807,5.383q-.582,2.43-2.532,2.438-1.974,0-1.97-2.986.24752-3.099,2.635-3.187a2.391,2.391,0,0,1,1.867.6Z" transform="translate(-0.0003)"/>
        <path class="cls-4" d="M374.382,124.7679a3.01725,3.01725,0,0,0-2.421,1.366v-.947q-.0255-.4095-.544-.409h-.716c-.347,0-.526.136-.544.409v8.779c.018.273.228.408.631.408h.545c.402,0,.611-.135.628-.408v-4.974c.386-1.619,1.233-2.433,2.532-2.439q1.88549,0,1.887,2.735v4.678c.014.273.228.408.63.408h.544c.404,0,.613-.135.632-.408v-4.642h-.019q-.07947-4.5555-3.785-4.556" transform="translate(-0.0003)"/>
        <path class="cls-4" d="M384.88266,124.7677q-3.99448.1725-4.398,4.853,0,4.755,3.785,4.754a3.01964,3.01964,0,0,0,2.419-1.366v.957c.019.273.227.409.63.409h.548c.401,0,.61-.136.629-.409v-7.69q-.80251-1.509-3.613-1.508m1.806,5.383q-.58053,2.43-2.533,2.438-1.96949,0-1.969-2.986.252-3.099,2.636-3.187a2.38713,2.38713,0,0,1,1.866.6Z" transform="translate(-0.0003)"/>
        <path class="cls-4" d="M202.758,109.9114l8.191-28.578,34.406-.003a3.22558,3.22558,0,0,0,3.024-2.273l3.941-13.136-35.872.053a1.05089,1.05089,0,0,0-1,.471c-.097.179-.566,1.026-.566,1.026s3.916-13.589,9.552-13.589h29.093a3.19965,3.19965,0,0,0,3.036-2.23l4.862-16.603-35.518-.054q-17.277,1.2645-25.226,28.909l-14.111,48.354h13.113a3.2099,3.2099,0,0,0,3.075-2.347" transform="translate(-0.0003)"/>
        <path class="cls-4" d="M309.6398,110.3896l-17.869-75.34c-.578.006-9.444,0-10.572,0a3.428,3.428,0,0,0-3.517,2.041l-32.8,75.167h12.859c2.549,0,2.988-1.126,3.38-1.999l7.503-17.079,20.254-.088a3.14842,3.14842,0,0,1,3.086,1.687l4.098,17.479h10.817s3.207,0,2.761-1.868m-22.56-28.069h-12.304s-.541.021-.681.021c-.547,0-1.161.996-1.161.996l10.636-24.509,5.196,22.107c.011.058.269,1.385-1.686,1.385" transform="translate(-0.0003)"/>
        <path class="cls-4" d="M386.77069,35.0491c-3.229,0-4.938,0-6.86,3.587l-24.821,46.15s-.327.584-.419.773a5.72558,5.72558,0,0,0-.437,2.38l-8.577-52.89h-12.471c-3.37,0-5.83,0-6.485,4.003l-13.807,73.206c1.613-.057,8.483,0,8.483,0,5.812,0,5.812,0,6.531-3.949l8.158-43.451,7.472,46.352c4.749.009.431.009,4.749.009h2.372c4.646-.009,4.646-.009,6.357-3.119l23.016-42.931-8.877,47.089h8.914c5.297,0,5.297,0,6.123-4.002l13.816-73.207Z" transform="translate(-0.0003)"/>
        <path class="cls-4" d="M136.65829,23.726c3.845-5.301,6.751-9.309,6.751-9.309l-17.87-.062A79.76235,79.76235,0,0,0,79.7453,0C35.7033,0,.0003,35.45.0003,79.181a78.49484,78.49484,0,0,0,17.452,49.433l-3.507,15.618h12.419c.134-.904.295-2.927.689-5.622q2.874,2.5125,5.984,4.75c-.036.322-.069.593-.098.797h1.227a79.7685,79.7685,0,0,0,45.579,14.205c44.042,0,79.745-35.451,79.745-79.181a78.63627,78.63627,0,0,0-22.832-55.455M79.7453,152.179a73.63416,73.63416,0,0,1-33.54-8.022h11.103l6.207-29.506,1.859-8.699c-.04.005-.497.041-1.006.09-9.239,1.111-15.564,3.853-20.345,8.854-6.194,6.476-8.807,15.144-10,21.448a73.39414,73.39414,0,0,1-5.566-4.867c1.632-6.482,4.634-14.152,10.372-20.153,7.395-7.733,17.991-10.609,36.028-10.609l36.857.003c3.911,0,5.291,0,7.991-3.822l25.839-34.158-46.855-.208c-13.501.706-26.471,1.659-40.321,19.503l-11.61,14.989,10.987-40.241c-18.634,3.71-25.458,8.725-30.758,29.357l-7.748,34.513a72.30888,72.30888,0,0,1-13.014-41.47c0-40.315,32.916-72.998,73.52-72.998a73.61742,73.61742,0,0,1,33.743,8.129l-29.044-.101c-8.515-.104-17.769-.005-26.321,11.719,0,0-17.241,23.171-25.195,37.186,4.708-6.768,15.344-10.855,25.9-11.265l53.893-.011h.008c1.899,0,3.452,0,5.306-2.435.001-.002,7.936-10.942,14.93-20.586a72.48308,72.48308,0,0,1,20.3,50.362c0,40.316-32.917,72.998-73.52,72.998" transform="translate(-0.0003)"/>
        <path class="cls-3" d="M496.593,134.3733h-4.142a2.43691,2.43691,0,0,1-2.462-1.693l-.443-1.361h-7.062l1.661-2.325a3.87354,3.87354,0,0,1,3.122-1.693h.969l-2-6.13-2.076,2.901h-.001l-2.309,3.229-2.875,4.018-.973,1.361a3.87139,3.87139,0,0,1-3.12,1.693h-4.143l12.425-17.224a3.87167,3.87167,0,0,1,3.111-1.679h4.04Z" transform="translate(-0.0003)"/>
        <path class="cls-3" d="M616.88037,122.3881a2.39126,2.39126,0,0,1,2.397,2.985c-.348,1.782-.82495,4.236-1.172,6.018a3.80846,3.80846,0,0,1-3.565,2.983h-19.626l.294-1.512a4.02393,4.02393,0,0,1,3.765-3.153h13.508l.51-2.616c-4.76,0-9.50305.014-14.254,0a2.392,2.392,0,0,1-2.393-2.987l.334-1.718Zm-19.764-2.253.34-1.747a3.72733,3.72733,0,0,1,3.487-2.918h19.523l-.294,1.513a4.02631,4.02631,0,0,1-3.767,3.152Z" transform="translate(-0.0003)"/>
        <path class="cls-3" d="M535.4494,134.3733h-5.643l-8.138-10.728-1.475,7.577a4.02531,4.02531,0,0,1-3.765,3.151h-2.491l3.68-18.903h5.643l8.137,10.726,1.475-7.575a4.0253,4.0253,0,0,1,3.766-3.151h2.49Z" transform="translate(-0.0003)"/>
        <path class="cls-3" d="M556.99231,134.373a2.49854,2.49854,0,0,1-2.513-3.117q1.2345-6.3345,2.466-12.669a3.981,3.981,0,0,1,3.727-3.117h17.209a2.49818,2.49818,0,0,1,2.511,3.117q-1.23294,6.336-2.465,12.669a3.98087,3.98087,0,0,1-3.726,3.117Zm5.294-14.237c-1.11506,5.731-.682,3.507-1.86206,9.571h12.162c1.18-6.064.747-3.84,1.863-9.571Z" transform="translate(-0.0003)"/>
      </g>
    </g>
  </g>
</svg>
