<svg xmlns="http://www.w3.org/2000/svg" width="35" height="29" viewBox="0 0 35 29">
  <defs>
    <style>
      .cls-1 {
        fill: #fff;
        fill-rule: evenodd;
      }
    </style>
  </defs>
  <path id="Forma_1" data-name="Forma 1" class="cls-1" d="M6,21.661a28.3,28.3,0,0,1,9.876,1.694,0.359,0.359,0,0,0,.134.026,0.354,0.354,0,0,0,.2-0.059,0.348,0.348,0,0,0,.156-0.29V4.311a0.349,0.349,0,0,0-.221-0.324l-10-3.956a0.352,0.352,0,0,0-.327.035,0.349,0.349,0,0,0-.154.289V21.313A0.35,0.35,0,0,0,6,21.661ZM34.664,3.355a0.353,0.353,0,0,0-.31-0.054L30.815,4.352a0.349,0.349,0,0,0-.25.334V22.772a0.267,0.267,0,0,1-.287.285H29.7c-2.854,0-8.159.294-11.615,2.266l-0.686.39-0.686-.39C13.261,23.352,7.957,23.057,5.1,23.057H4.37a0.145,0.145,0,0,1-.128-0.163V4.687a0.349,0.349,0,0,0-.25-0.334L0.453,3.3a0.353,0.353,0,0,0-.31.054A0.348,0.348,0,0,0,0,3.635V25.516a0.35,0.35,0,0,0,.385.347c1.052-.1,2.7-0.225,4.556-0.225,4.086,0,7.369.593,9.5,1.715A9.828,9.828,0,0,0,17.4,28.487a9.826,9.826,0,0,0,2.964-1.133c2.128-1.122,5.411-1.715,9.5-1.715,1.86,0,3.5.122,4.556,0.225a0.352,0.352,0,0,0,.27-0.089,0.348,0.348,0,0,0,.115-0.259V3.635A0.348,0.348,0,0,0,34.664,3.355ZM18.6,23.322a0.354,0.354,0,0,0,.2.059,0.359,0.359,0,0,0,.134-0.026,28.293,28.293,0,0,1,9.877-1.694,0.35,0.35,0,0,0,.344-0.349V0.355A0.348,0.348,0,0,0,29,.066,0.353,0.353,0,0,0,28.669.031l-10,3.956a0.349,0.349,0,0,0-.221.324V23.032A0.348,0.348,0,0,0,18.6,23.322Z"/>
</svg>
