<svg xmlns="http://www.w3.org/2000/svg" width="31" height="29" viewBox="0 0 31 29">
  <defs>
    <style>
      .cls-1 {
        fill: #fff;
        fill-rule: evenodd;
      }
    </style>
  </defs>
  <path id="Forma_1" data-name="Forma 1" class="cls-1" d="M22.178,0.127L6.035,0.012,0.169,9.08v1.037l13.739,2.97L21.057,1.17l7.8,9.3,1.975-.018ZM14.4,13.936L0.911,10.948l0,11.722L8.8,26.061V18.555l3.933,1.174v8.023l1.878,0.808v0.012l13.447-5.779V10.626L21.118,2.363ZM6.3,21.587L2.956,20.418V17.6L6.3,18.638v2.948Zm0.177-4.6-3.358-.963V13.2l3.358,0.829v2.956Zm6.261,1.794L8.8,17.653V14.606l3.933,0.971v3.2Zm8.455,3.563-4.041,1.421V20.473l4.041-1.252v3.122Zm1.572-8.271,3.505-.866V16.12l-3.505,1.012v-3.06Zm-0.03,4.671,3.509-1.089v2.915L22.735,21.8v-3.06Zm-1.509-1.168-4.04,1.166V15.453l4.04-1v3.123Z"/>
</svg>
