<svg xmlns="http://www.w3.org/2000/svg" width="29" height="29" viewBox="0 0 29 29">
  <defs>
    <style>
      .cls-1 {
        fill: #fff;
        fill-rule: evenodd;
      }
    </style>
  </defs>
  <path id="Forma_1" data-name="Forma 1" class="cls-1" d="M14.509,0.082a14.3,14.3,0,1,0,14.382,14.3A14.341,14.341,0,0,0,14.509.082ZM18.431,19.9a4.58,4.58,0,0,1-3.065,1.393v2.023h-1.7V21.3a4.45,4.45,0,0,1-4.138-3.861l2.633-.682a2.285,2.285,0,0,0,2.423,2.211A1.883,1.883,0,0,0,16,18.5a1.594,1.594,0,0,0,.453-1.143A1.256,1.256,0,0,0,16,16.306a8.206,8.206,0,0,0-2.015-.908,11.886,11.886,0,0,1-2.195-.958A3.613,3.613,0,0,1,10.5,13.117a3.907,3.907,0,0,1-.493-1.986,4.387,4.387,0,0,1,.881-2.674,3.945,3.945,0,0,1,2.77-1.45V5.444h1.7V7.006a4.112,4.112,0,0,1,3.7,3.212l-2.345.956q-0.687-1.969-2.123-1.969a1.553,1.553,0,0,0-1.157.44A1.457,1.457,0,0,0,13,10.712a1.191,1.191,0,0,0,.421.981,7.252,7.252,0,0,0,1.8.845,16.024,16.024,0,0,1,2.379,1.04,3.73,3.73,0,0,1,1.378,1.353,3.874,3.874,0,0,1,.514,2.018A4.254,4.254,0,0,1,18.431,19.9Z"/>
</svg>
