<svg xmlns="http://www.w3.org/2000/svg" width="54" height="26" viewBox="0 0 54 26">
  <defs>
    <style>
      .cls-1 {
        fill: #fff;
        fill-rule: evenodd;
      }
    </style>
  </defs>
  <path id="Forma_1" data-name="Forma 1" class="cls-1" d="M33.227,9.053A9.963,9.963,0,0,1,34.6,4.006a0.471,0.471,0,0,0-.514-0.7,10.133,10.133,0,0,0-7.648,10.683,10.26,10.26,0,0,0,17.736,5.965,0.467,0.467,0,0,0-.373-0.776c-0.11,0-.221.007-0.332,0.007A10.185,10.185,0,0,1,33.227,9.053ZM39.353,3.7l0.513,1.458,1.561,0.033a0.206,0.206,0,0,1,.121.371L40.306,6.5l0.45,1.478a0.208,0.208,0,0,1-.318.229l-1.282-.881L37.874,8.2a0.208,0.208,0,0,1-.319-0.229L38.006,6.5l-1.243-.934a0.206,0.206,0,0,1,.122-0.371l1.561-.033L38.959,3.7A0.21,0.21,0,0,1,39.353,3.7Zm9.581,11.542,0.493,1.4,1.5,0.032a0.227,0.227,0,0,1,.135.408l-1.195.9L50.3,19.4a0.229,0.229,0,0,1-.351.252l-1.232-.846-1.232.846a0.229,0.229,0,0,1-.35-0.252l0.433-1.421-1.193-.9a0.227,0.227,0,0,1,.133-0.408l1.5-.032,0.494-1.4A0.231,0.231,0,0,1,48.934,15.242ZM48.747,5.083l0.742,2.1L51.74,7.234a0.264,0.264,0,0,1,.156.475L50.1,9.057l0.651,2.133a0.266,0.266,0,0,1-.408.293l-1.85-1.27-1.85,1.27a0.267,0.267,0,0,1-.409-0.293l0.651-2.133L45.093,7.709a0.264,0.264,0,0,1,.156-0.475L47.5,7.187l0.742-2.1A0.268,0.268,0,0,1,48.747,5.083ZM13.494,7.489A5.646,5.646,0,0,0,7.735,13a5.645,5.645,0,0,0,5.759,5.511A5.645,5.645,0,0,0,19.253,13,5.646,5.646,0,0,0,13.494,7.489Zm0-1.62A1.1,1.1,0,0,1,12.37,4.794V3.074a1.125,1.125,0,0,1,2.247,0v1.72A1.1,1.1,0,0,1,13.494,5.869Zm0,14.262a1.1,1.1,0,0,0-1.124,1.075v1.72a1.125,1.125,0,0,0,2.247,0v-1.72A1.1,1.1,0,0,0,13.494,20.131ZM18.762,7.958a1.043,1.043,0,0,1,0-1.521L20.033,5.22a1.16,1.16,0,0,1,1.589,0,1.043,1.043,0,0,1,0,1.521L20.351,7.958A1.159,1.159,0,0,1,18.762,7.958ZM8.225,18.042a1.159,1.159,0,0,0-1.589,0L5.365,19.259a1.043,1.043,0,0,0,0,1.521,1.16,1.16,0,0,0,1.589,0l1.271-1.217A1.042,1.042,0,0,0,8.225,18.042ZM20.945,13a1.1,1.1,0,0,1,1.124-1.075h1.8a1.076,1.076,0,1,1,0,2.15h-1.8A1.1,1.1,0,0,1,20.945,13Zm-14.9,0a1.1,1.1,0,0,0-1.124-1.075h-1.8a1.076,1.076,0,1,0,0,2.15h1.8A1.1,1.1,0,0,0,6.043,13Zm12.72,5.043a1.159,1.159,0,0,1,1.589,0l1.271,1.217a1.042,1.042,0,0,1,0,1.52,1.16,1.16,0,0,1-1.589,0l-1.271-1.217A1.042,1.042,0,0,1,18.762,18.043ZM8.225,7.958a1.043,1.043,0,0,0,0-1.521L6.954,5.221a1.159,1.159,0,0,0-1.589,0,1.042,1.042,0,0,0,0,1.52L6.636,7.958A1.158,1.158,0,0,0,8.225,7.958Z"/>
</svg>
