<svg xmlns="http://www.w3.org/2000/svg" width="28" height="29" viewBox="0 0 28 29">
  <defs>
    <style>
      .cls-1 {
        fill: #fff;
        fill-rule: evenodd;
      }
    </style>
  </defs>
  <path id="Forma_1" data-name="Forma 1" class="cls-1" d="M17.87,27.325H1.767V3.026h16.1v3.18L19.1,4.068V1.781H0.534V28.569H19.1V18.538L17.87,20.267v7.058ZM3.905,5.131H16.116v4.975H3.905V5.131Zm18.868-5.06-2.4,3.9,0.006,0-7.45,12.072-1.233,6.637,5.686-3.714L24.9,6.813,24.91,6.818l2.4-3.9Zm-5.711,18.5-3.247,2.118-1.125-.705,0.682-3.719,0.339-.55,0.342,2.021,1.3-.659L15.43,18.6l1.877-.426ZM22.2,2.9l0.892-1.441,2.848,1.788-0.89,1.442Z"/>
</svg>
