<svg xmlns="http://www.w3.org/2000/svg" width="58" height="58" viewBox="0 0 58 58">
  <defs>
    <style>
      .cls-1 {
        fill: #155bb3;
        fill-rule: evenodd;
      }
    </style>
  </defs>
  <path id="Instagram_Rounded" data-name="Instagram Rounded" class="cls-1" d="M29.355,2A27.249,27.249,0,0,0,2,29.077a27.357,27.357,0,0,0,54.712,0A27.249,27.249,0,0,0,29.355,2Zm0.056,12.7c4.749,0,5.312.018,7.187,0.1a9.929,9.929,0,0,1,3.3.606,5.518,5.518,0,0,1,2.045,1.317,5.45,5.45,0,0,1,1.331,2.024,9.657,9.657,0,0,1,.612,3.269c0.085,1.857.1,2.413,0.1,7.114s-0.018,5.258-.1,7.114a9.66,9.66,0,0,1-.612,3.269,5.449,5.449,0,0,1-1.331,2.024A5.517,5.517,0,0,1,39.9,42.857a9.931,9.931,0,0,1-3.3.606c-1.875.084-2.438,0.1-7.187,0.1s-5.312-.018-7.187-0.1a9.93,9.93,0,0,1-3.3-.606,5.516,5.516,0,0,1-2.045-1.317,5.452,5.452,0,0,1-1.331-2.024,9.658,9.658,0,0,1-.612-3.269c-0.086-1.856-.1-2.413-0.1-7.114s0.018-5.258.1-7.114a9.656,9.656,0,0,1,.612-3.269,5.453,5.453,0,0,1,1.331-2.024,5.517,5.517,0,0,1,2.045-1.317,9.928,9.928,0,0,1,3.3-.606c1.876-.085,2.438-0.1,7.187-0.1m0-3.172c-4.83,0-5.436.02-7.333,0.106a13.175,13.175,0,0,0-4.317.818,8.727,8.727,0,0,0-3.15,2.031A8.621,8.621,0,0,0,12.559,17.6a12.808,12.808,0,0,0-.827,4.274c-0.087,1.878-.107,2.477-0.107,7.259s0.02,5.381.107,7.259a12.807,12.807,0,0,0,.827,4.274,8.624,8.624,0,0,0,2.052,3.118,8.726,8.726,0,0,0,3.15,2.031,13.172,13.172,0,0,0,4.317.818c1.9,0.086,2.5.106,7.333,0.106s5.436-.02,7.333-0.106a13.173,13.173,0,0,0,4.318-.818,8.726,8.726,0,0,0,3.15-2.031,8.623,8.623,0,0,0,2.052-3.118,12.807,12.807,0,0,0,.827-4.274c0.087-1.878.107-2.477,0.107-7.259s-0.02-5.381-.107-7.259a12.808,12.808,0,0,0-.827-4.274,8.62,8.62,0,0,0-2.052-3.118,8.726,8.726,0,0,0-3.15-2.031,13.176,13.176,0,0,0-4.318-.818c-1.9-.086-2.5-0.106-7.333-0.106h0Zm0,8.565a9.041,9.041,0,1,0,9.133,9.041A9.087,9.087,0,0,0,29.411,20.092Zm0,14.909a5.869,5.869,0,1,1,5.929-5.869A5.9,5.9,0,0,1,29.411,35ZM41.04,19.735a2.134,2.134,0,1,1-2.134-2.113A2.124,2.124,0,0,1,41.04,19.735Z"/>
</svg>
