<svg id="fone" xmlns="http://www.w3.org/2000/svg" width="58" height="58" viewBox="0 0 58 58">
  <defs>
    <style>
      .cls-1 {
        fill: #155bb3;
      }

      .cls-2 {
        fill: #e1a292;
        fill-rule: evenodd;
      }
    </style>
  </defs>
  <ellipse class="cls-1" cx="29.219" cy="29.5" rx="27.781" ry="27.5"/>
  <path id="fone_1" data-name="fone 1" class="cls-2" d="M24.607,33.283c3.22,3.17,6.948,6.2,8.411,4.736,2.095-2.093,3.384-3.915,8.034-.237s1.1,6.156-.931,8.185c-2.342,2.34-11.113.163-19.806-8.394S9.362,20.331,11.7,17.99c2.03-2.028,4.5-5.568,8.242-.984s1.917,5.876-.178,7.969C18.306,26.438,21.387,30.111,24.607,33.283Zm4.669-15.126a2.083,2.083,0,0,0-1.652.525,1.863,1.863,0,0,0,.007,2.622,2.109,2.109,0,0,0,1.051.525,8.61,8.61,0,0,1,4.927,2.506,8.479,8.479,0,0,1,2.527,4.887,2.076,2.076,0,0,0,.529,1.043,1.9,1.9,0,0,0,2.643.006,2.045,2.045,0,0,0,.529-1.638,12.631,12.631,0,0,0-3.577-6.927A12.816,12.816,0,0,0,29.277,18.157Zm9.111,1.438c3.523,3.495,5.025,7.461,4.537,10.674a2.089,2.089,0,0,0,.5,1.682,1.9,1.9,0,0,0,2.656.005,2.324,2.324,0,0,0,.553-1.182c0.4-2.777-.1-8.364-5.594-13.809s-11.121-5.948-13.921-5.548a2.357,2.357,0,0,0-1.192.548,1.858,1.858,0,0,0,.005,2.634,2.132,2.132,0,0,0,1.7.5C30.867,14.61,34.866,16.1,38.388,19.594Z"/>
</svg>
