<svg xmlns="http://www.w3.org/2000/svg" xmlns:xlink="http://www.w3.org/1999/xlink" preserveAspectRatio="xMidYMid" width="181" height="72" viewBox="0 0 181 72">
  <defs>
    <style>
      .cls-1 {
        fill: #222222;
        fill-rule: evenodd;
      }
    </style>
  </defs>
  <path d="M174.761,49.208 C174.386,51.027 174.386,51.027 171.989,51.027 C171.989,51.027 170.543,51.027 167.955,51.027 L171.972,29.623 L161.557,49.137 C160.783,50.551 160.783,50.551 158.680,50.555 L157.607,50.555 C155.653,50.555 157.607,50.555 155.458,50.551 L152.076,29.481 L148.385,49.232 C148.059,51.027 148.059,51.027 145.429,51.027 C145.429,51.027 142.320,51.001 141.590,51.027 L147.838,17.751 C148.135,15.932 149.248,15.932 150.773,15.932 C150.773,15.932 155.393,15.932 156.417,15.932 L160.298,39.973 C160.298,39.973 160.271,39.346 160.496,38.891 C160.538,38.805 160.685,38.540 160.685,38.540 L171.918,17.562 C172.788,15.932 173.561,15.932 175.023,15.932 C175.023,15.932 178.408,15.932 181.013,15.932 L174.761,49.208 ZM138.868,51.027 L136.279,51.027 C134.817,51.027 134.525,51.027 133.973,51.027 L132.119,43.082 C132.119,43.082 131.816,42.315 130.722,42.315 L121.556,42.355 L118.160,50.118 C117.983,50.515 117.785,51.027 116.631,51.027 L113.593,51.027 C112.130,51.027 111.478,51.027 110.812,51.027 L125.655,16.859 C125.873,16.418 126.233,15.932 127.247,15.932 C127.757,15.932 131.769,15.935 132.031,15.932 L140.117,50.178 C140.319,51.027 138.868,51.027 138.868,51.027 ZM130.671,36.790 L128.320,26.740 L123.507,37.881 C123.507,37.881 123.784,37.429 124.032,37.429 C124.095,37.429 124.340,37.419 124.340,37.419 L129.908,37.419 C130.793,37.419 130.676,36.816 130.671,36.790 ZM114.724,24.492 L101.559,24.492 C99.008,24.492 97.236,30.669 97.236,30.669 C97.236,30.669 97.448,30.284 97.492,30.203 C97.630,29.950 97.944,29.989 97.944,29.989 L114.178,29.965 L112.394,35.935 C112.213,36.526 111.666,36.961 111.026,36.969 L95.456,36.970 L91.749,49.961 C91.577,50.574 91.018,51.027 90.357,51.027 L84.423,51.027 L90.809,29.048 C93.208,20.671 97.013,16.290 102.225,15.907 L118.298,15.932 L116.098,23.479 C115.910,24.065 115.367,24.492 114.724,24.492 ZM36.081,71.984 C28.411,71.984 21.301,69.596 15.454,65.527 C15.247,65.527 15.073,65.527 14.950,65.527 L14.899,65.527 C14.912,65.435 14.927,65.311 14.943,65.165 C14.006,64.488 13.102,63.767 12.236,63.006 C12.057,64.231 11.984,65.151 11.923,65.561 L6.304,65.561 L7.890,58.462 C2.949,52.304 -0.008,44.493 -0.008,35.992 C-0.008,16.114 16.150,-0.000 36.081,-0.000 C43.793,-0.000 50.940,2.414 56.804,6.524 L64.891,6.553 C64.891,6.553 63.576,8.374 61.836,10.784 C68.226,17.278 72.169,26.175 72.169,35.992 C72.169,55.870 56.011,71.984 36.081,71.984 ZM60.165,13.099 C56.999,17.483 53.409,22.456 53.408,22.457 C52.569,23.564 51.867,23.564 51.008,23.564 C51.008,23.564 51.003,23.564 51.003,23.564 L26.615,23.569 C21.838,23.755 17.025,25.613 14.894,28.689 C18.494,22.319 26.296,11.786 26.296,11.786 C30.166,6.457 34.354,6.412 38.207,6.459 L51.351,6.505 C46.777,4.145 41.586,2.810 36.081,2.810 C17.706,2.810 2.810,17.666 2.810,35.992 C2.810,42.994 4.987,49.488 8.699,54.842 L12.205,39.154 C14.604,29.776 17.692,27.496 26.125,25.810 L21.153,44.101 L26.407,37.289 C32.674,29.177 38.544,28.744 44.654,28.423 L65.857,28.517 L54.164,44.044 C52.943,45.782 52.318,45.782 50.548,45.782 C50.535,45.782 33.868,45.781 33.868,45.781 C25.706,45.781 20.911,47.088 17.564,50.603 C14.968,53.331 13.609,56.817 12.871,59.763 C13.673,60.542 14.513,61.281 15.389,61.976 C15.930,59.110 17.112,55.170 19.915,52.226 C22.078,49.953 24.941,48.707 29.122,48.202 C29.352,48.180 29.559,48.163 29.577,48.161 L28.736,52.115 L25.927,65.527 C25.927,65.527 23.498,65.527 20.902,65.527 C25.453,67.858 30.613,69.174 36.081,69.174 C54.455,69.174 69.351,54.318 69.351,35.992 C69.351,27.116 65.856,19.054 60.165,13.099 Z" class="cls-1"/>
</svg>
