<svg xmlns="http://www.w3.org/2000/svg" width="108" height="43" viewBox="0 0 108 43">
  <metadata><?xpacket begin="﻿" id="W5M0MpCehiHzreSzNTczkc9d"?>
<x:xmpmeta xmlns:x="adobe:ns:meta/" x:xmptk="Adobe XMP Core 5.6-c142 79.160924, 2017/07/13-01:06:39        ">
   <rdf:RDF xmlns:rdf="http://www.w3.org/1999/02/22-rdf-syntax-ns#">
      <rdf:Description rdf:about=""/>
   </rdf:RDF>
</x:xmpmeta>
                                                                                                    
                                                                                                    
                                                                                                    
                                                                                                    
                                                                                                    
                                                                                                    
                                                                                                    
                                                                                                    
                                                                                                    
                                                                                                    
                                                                                                    
                                                                                                    
                                                                                                    
                                                                                                    
                                                                                                    
                                                                                                    
                                                                                                    
                                                                                                    
                                                                                                    
                                                                                                    
                           
<?xpacket end="w"?></metadata>
<defs>
    <style>
      .cls-1 {
        fill: #1eade9;
        fill-rule: evenodd;
      }
    </style>
  </defs>
  <path id="Logo_FAM" data-name="Logo FAM" class="cls-1" d="M638.743,47.844l2.212-7.76h9.289a0.871,0.871,0,0,0,.817-0.618l1.064-3.567-9.685.015a0.282,0.282,0,0,0-.27.128l-0.153.278s1.057-3.69,2.579-3.69h7.855a0.864,0.864,0,0,0,.819-0.605l1.313-4.508-9.589-.015q-4.665.343-6.811,7.85l-3.81,13.129h3.54A0.866,0.866,0,0,0,638.743,47.844Zm28.858,0.13-4.824-20.457c-0.157,0-2.551,0-2.855,0a0.927,0.927,0,0,0-.95.554l-8.855,20.41h3.471a0.8,0.8,0,0,0,.913-0.543l2.026-4.637L662,43.277a0.85,0.85,0,0,1,.833.458l1.106,4.746h2.921S667.722,48.481,667.6,47.974Zm-6.091-7.622h-3.322s-0.146.006-.184,0.006a0.585,0.585,0,0,0-.313.27l2.871-6.655,1.4,6C661.968,39.992,662.038,40.352,661.51,40.352Zm26.916-12.835a1.612,1.612,0,0,0-1.852.974l-6.7,12.531s-0.088.159-.113,0.21a1.561,1.561,0,0,0-.118.646l-2.316-14.361h-3.367c-0.91,0-1.574,0-1.751,1.087l-3.728,19.878c0.436-.015,2.291,0,2.291,0,1.569,0,1.569,0,1.763-1.072l2.2-11.8L676.753,48.2c1.282,0,.117,0,1.282,0h0.641c1.254,0,1.254,0,1.716-.847L686.606,35.7l-2.4,12.786h2.406c1.43,0,1.43,0,1.654-1.087L692,27.517h-3.574ZM620.9,24.442l1.822-2.527L617.9,21.9a21.511,21.511,0,0,0-29.183,31.025l-0.947,4.241h3.353c0.036-.245.08-0.795,0.186-1.526q0.776,0.683,1.616,1.29c-0.01.088-.019,0.161-0.027,0.216h0.332A21.51,21.51,0,0,0,620.9,24.442ZM605.531,59.321a19.789,19.789,0,0,1-9.056-2.178h3l1.676-8.012,0.5-2.361-0.272.024a8.482,8.482,0,0,0-5.493,2.4,11.57,11.57,0,0,0-2.7,5.824,19.852,19.852,0,0,1-1.5-1.322,12.2,12.2,0,0,1,2.8-5.472c2-2.1,4.857-2.88,9.727-2.88h9.951a1.973,1.973,0,0,0,2.158-1.038l6.976-9.275-12.65-.057c-3.646.192-7.148,0.45-10.887,5.3l-3.135,4.07,2.967-10.926c-5.031,1.007-6.874,2.369-8.305,7.971l-2.092,9.371a19.842,19.842,0,0,1,25.447-28.874l-7.842-.027c-2.3-.028-4.8,0-7.106,3.182,0,0-4.655,6.292-6.8,10.1,1.272-1.838,4.143-2.948,6.993-3.059l14.551,0h0a1.466,1.466,0,0,0,1.433-.661l4.031-5.59A19.816,19.816,0,0,1,605.531,59.321Z" transform="translate(-584 -18)"/>
</svg>
